<?xml version="1.0" standalone="no"?><!DOCTYPE svg PUBLIC "-//W3C//DTD SVG 1.1//EN" "http://www.w3.org/Graphics/SVG/1.1/DTD/svg11.dtd"><svg t="1694142990812" class="icon" viewBox="0 0 1024 1024" version="1.1" xmlns="http://www.w3.org/2000/svg" p-id="4056" xmlns:xlink="http://www.w3.org/1999/xlink" width="200" height="200"><path d="M64 682.666667a21.333333 21.333333 0 0 1-21.333333-21.333334V224a53.393333 53.393333 0 0 1 53.333333-53.333333h812.5l-48.92-48.913334a21.333333 21.333333 0 0 1 30.173333-30.173333l85.333334 85.333333a21.333333 21.333333 0 0 1 0 30.173334l-85.333334 85.333333a21.333333 21.333333 0 0 1-30.173333-30.173333l48.92-48.913334H96a10.666667 10.666667 0 0 0-10.666667 10.666667v437.333333a21.333333 21.333333 0 0 1-21.333333 21.333334z m100.42 249.753333a21.333333 21.333333 0 0 0 0-30.173333L115.5 853.333333H928a53.393333 53.393333 0 0 0 53.333333-53.333333V362.666667a21.333333 21.333333 0 0 0-42.666666 0v437.333333a10.666667 10.666667 0 0 1-10.666667 10.666667H115.5l48.92-48.913334a21.333333 21.333333 0 0 0-30.173333-30.173333l-85.333334 85.333333a21.333333 21.333333 0 0 0 0 30.173334l85.333334 85.333333a21.333333 21.333333 0 0 0 30.173333 0zM640 640c-33.546667 0-70.666667-13.38-99.246667-35.78a146.466667 146.466667 0 0 1-28.753333-29.6 146.466667 146.466667 0 0 1-28.753333 29.6C454.666667 626.62 417.546667 640 384 640c-70.58 0-128-57.42-128-128s57.42-128 128-128c33.546667 0 70.666667 13.38 99.246667 35.78a146.466667 146.466667 0 0 1 28.753333 29.6 146.466667 146.466667 0 0 1 28.753333-29.6C569.333333 397.38 606.453333 384 640 384c70.58 0 128 57.42 128 128s-57.42 128-128 128z m0-213.333333c-48 0-106.666667 39.373333-106.666667 85.333333s58.666667 85.333333 106.666667 85.333333a85.333333 85.333333 0 0 0 0-170.666666z m-256 0a85.333333 85.333333 0 0 0 0 170.666666c48 0 106.666667-39.373333 106.666667-85.333333s-58.666667-85.333333-106.666667-85.333333z" fill="#5C5C66" p-id="4057"></path></svg>